<?xml version="1.0" encoding="UTF-8" standalone="no"?>
<!DOCTYPE svg PUBLIC "-//W3C//DTD SVG 1.1//EN" "http://www.w3.org/Graphics/SVG/1.1/DTD/svg11.dtd">
<!-- Created with Vectornator (http://vectornator.io/) -->
<svg height="100%" stroke-miterlimit="10" style="fill-rule:nonzero;clip-rule:evenodd;stroke-linecap:round;stroke-linejoin:round;" version="1.1" viewBox="0 0 512 512" width="100%" xml:space="preserve" xmlns="http://www.w3.org/2000/svg" xmlns:vectornator="http://vectornator.io" xmlns:xlink="http://www.w3.org/1999/xlink">
<defs/>
<clipPath id="ArtboardFrame">
<rect height="512" width="512" x="0" y="0"/>
</clipPath>
<g clip-path="url(#ArtboardFrame)" id="Layer-1" vectornator:layerName="Layer 1">
<path d="M-1.16824e-13 62.4569C-1.56319e-13 27.9629 27.9629 1.91847e-13 62.4569 1.52224e-13L449.543-3.007e-13C484.037-3.2685e-13 512 27.9629 512 62.4569L512 449.543C512 484.037 484.037 512 449.543 512L62.4569 512C27.9629 512 3.55271e-13 484.037 3.26391e-13 449.543L-1.16824e-13 62.4569Z" fill="#ffffff" fill-rule="nonzero" opacity="1" stroke="none" vectornator:layerName="Rectangle 1"/>
<path d="M186.795 153.334C186.795 153.334 147.376 341.976 132.673 413.217C202.971 396.076 185.24 409.833 199.567 349.125C225.527 345.05 247.682 329.028 259.893 316.145C283.116 375.089 344.819 347.52 401.101 279.823C379.422 271.968 359.381 312.978 333.99 313.304C290.423 313.865 338.486 216.069 346.207 154.875C322.622 153.83 291.354 153.348 291.354 153.348L260.808 298.921C260.808 298.921 204.542 334.524 214.137 292.241C223.732 249.958 243.714 154.215 243.714 154.215L186.795 153.334Z" fill="#505254" fill-rule="nonzero" opacity="1" stroke="#131313" stroke-linecap="butt" stroke-linejoin="round" stroke-width="1" vectornator:layerName="Curve 1"/>
<g opacity="1" vectornator:layerName="Group 1">
<path d="M66.004 256.226C75.0363 263.752 81.6679 271.127 85.8989 278.352C90.1298 285.577 93.3149 293.027 95.4541 300.704C97.5934 308.38 98.663 317.186 98.663 327.12C98.663 335.85 97.6647 347.289 95.668 361.438L91.96 387.854C90.0585 402.303 89.1077 412.99 89.1077 419.914C89.1077 429.246 91.4133 437.223 96.0246 443.846C100.636 450.469 110.167 453.78 124.619 453.78L147.295 453.78L147.295 489.453L124.334 489.453C97.6171 489.453 80.4082 482.68 72.7069 469.133C65.0057 455.587 61.1551 440.234 61.1551 423.075C61.1551 414.044 61.8681 404.26 63.2943 393.724L66.004 375.21L68.4285 355.116L70.2825 342.698C70.948 336.979 71.2808 331.485 71.2808 326.217C71.2808 311.767 68.2383 299.462 62.1534 289.302C56.0684 279.142 45.3247 274.062 29.9222 274.062L16.8016 274.062L16.8016 238.164L29.9222 238.164C45.1346 238.164 55.8308 233.159 62.0108 223.149C68.1908 213.14 71.2808 200.609 71.2808 185.558C71.2808 179.988 70.948 174.57 70.2825 169.302L68.4285 157.336L66.004 137.241L63.2943 118.728C61.8681 108.041 61.1551 98.182 61.1551 89.151C61.1551 72.1425 65.0057 56.7896 72.7069 43.0925C80.4082 29.3954 97.6171 22.5468 124.334 22.5468L147.295 22.5468L147.295 58.6711L124.619 58.6711C110.262 58.6711 100.755 61.9449 96.0959 68.4924C91.4371 75.0399 89.1077 83.1303 89.1077 92.7634C89.1077 99.5367 90.0585 110.073 91.96 124.372L95.668 150.788C97.6647 165.087 98.663 176.602 98.663 185.332C98.663 195.266 97.5934 204.034 95.4541 211.635C93.3149 219.236 90.1298 226.687 85.8989 233.987C81.6679 241.287 75.0363 248.7 66.004 256.226Z" fill="#a7abaf" fill-rule="nonzero" opacity="1" stroke="none"/>
</g>
<g opacity="1" vectornator:layerName="Group 2">
<path d="M445.562 256.226C436.746 263.752 430.272 271.127 426.142 278.352C422.013 285.577 418.904 293.027 416.815 300.704C414.727 308.38 413.683 317.186 413.683 327.12C413.683 335.85 414.658 347.289 416.607 361.438L420.226 387.854C422.082 402.303 423.01 412.99 423.01 419.914C423.01 429.246 420.76 437.223 416.259 443.846C411.758 450.469 402.454 453.78 388.347 453.78L366.213 453.78L366.213 489.453L388.626 489.453C414.704 489.453 431.502 482.68 439.019 469.133C446.537 455.587 450.295 440.234 450.295 423.075C450.295 414.044 449.599 404.26 448.207 393.724L445.562 375.21L443.196 355.116L441.386 342.698C440.736 336.979 440.411 331.485 440.411 326.217C440.411 311.767 443.381 299.462 449.321 289.302C455.26 279.142 465.747 274.062 480.782 274.062L493.589 274.062L493.589 238.164L480.782 238.164C465.933 238.164 455.492 233.159 449.46 223.149C443.428 213.14 440.411 200.609 440.411 185.558C440.411 179.988 440.736 174.57 441.386 169.302L443.196 157.336L445.562 137.241L448.207 118.728C449.599 108.041 450.295 98.182 450.295 89.151C450.295 72.1425 446.537 56.7896 439.019 43.0925C431.502 29.3954 414.704 22.5468 388.626 22.5468L366.213 22.5468L366.213 58.6711L388.347 58.6711C402.361 58.6711 411.642 61.9449 416.189 68.4924C420.737 75.0399 423.01 83.1303 423.01 92.7634C423.01 99.5367 422.082 110.073 420.226 124.372L416.607 150.788C414.658 165.087 413.683 176.602 413.683 185.332C413.683 195.266 414.727 204.034 416.815 211.635C418.904 219.236 422.013 226.687 426.142 233.987C430.272 241.287 436.746 248.7 445.562 256.226Z" fill="#a7abaf" fill-rule="nonzero" opacity="1" stroke="none"/>
</g>
</g>
</svg>
